<?xml version="1.0" encoding="iso-8859-1"?>
<!-- Generator: Adobe Illustrator 19.1.0, SVG Export Plug-In . SVG Version: 6.00 Build 0)  -->
<svg version="1.1" id="Capa_1" xmlns="http://www.w3.org/2000/svg" xmlns:xlink="http://www.w3.org/1999/xlink" x="0px" y="0px"
	 viewBox="0 0 489.3 489.3" style="enable-background:new 0 0 489.3 489.3;" xml:space="preserve">
<g>
	<g>
		<path d="M242.25,84.9h0.2c11.2-0.1,21.8-4.5,29.7-12.5s12.2-18.6,12.1-29.8c-0.1-23.1-19-41.8-42-41.8h-0.2
			c-11.2,0.1-21.8,4.5-29.7,12.5s-12.2,18.6-12.1,29.8C200.35,66.2,219.25,84.9,242.25,84.9z M229.45,30.2c3.4-3.4,7.9-5.3,12.7-5.4
			h0.1c9.9,0,18,8,18,17.9c0,4.8-1.8,9.4-5.2,12.8c-3.4,3.4-7.9,5.3-12.7,5.4h-0.1c-9.9,0-18-8-18-17.9
			C224.25,38.2,226.05,33.6,229.45,30.2z"/>
		<path d="M298.45,125.4c-12.6-20.7-31.8-31.6-55.4-31.6c-0.1,0-0.3,0-0.4,0c-23.8,0.1-43,11.3-55.5,32.2
			c-9,15.1-14.7,35.5-16.9,60.6c-0.6,6.6,4.3,12.4,10.9,13c0.4,0,0.7,0,1,0c6.2,0,11.4-4.7,11.9-11c4.1-46.9,20.4-70.7,48.6-70.9
			c0.1,0,0.2,0,0.3,0c28,0,44.5,23.7,49.1,70.4c0.6,6.6,6.5,11.4,13.1,10.8c6.6-0.6,11.4-6.5,10.8-13.1
			C313.45,160.7,307.55,140.4,298.45,125.4z"/>
		<path d="M415.55,372h0.2c11.2-0.1,21.8-4.5,29.7-12.5c7.9-8,12.2-18.6,12.2-29.8c-0.1-23.1-19-41.8-42-41.8h-0.2
			c-23.2,0.1-41.9,19.1-41.8,42.3C373.65,353.2,392.55,372,415.55,372z M415.45,311.9h0.1c9.9,0,18,8,18,17.9
			c0,4.8-1.8,9.4-5.2,12.8c-3.4,3.4-7.9,5.3-12.7,5.4h-0.1c-9.9,0-18-8-18-17.9C397.45,320.1,405.55,312,415.45,311.9z"/>
		<path d="M489.25,472.8c-2.4-25.1-8.3-45.4-17.5-60.4c-12.6-20.7-31.8-31.6-55.4-31.6c-0.1,0-0.3,0-0.4,0
			c-23.8,0.1-43,11.3-55.5,32.2c-9,15.1-14.7,35.5-16.9,60.6c-0.6,6.6,4.3,12.4,10.9,13c0.4,0,0.7,0,1,0c6.2,0,11.4-4.7,11.9-11
			c4.1-46.9,20.4-70.7,48.6-70.9c0.1,0,0.2,0,0.3,0c28,0,44.5,23.7,49.1,70.4c0.6,6.6,6.5,11.4,13.1,10.8
			C485.05,485.3,489.85,479.4,489.25,472.8z"/>
		<path d="M243.25,225.2c3.2,0,6.2-1.3,8.5-3.5c2.2-2.2,3.5-5.3,3.5-8.5s-1.3-6.3-3.5-8.5s-5.3-3.5-8.5-3.5c-3.2,0-6.3,1.3-8.5,3.5
			s-3.5,5.3-3.5,8.5s1.3,6.3,3.5,8.5S240.05,225.2,243.25,225.2z"/>
		<path d="M243.45,277.1C243.55,277.1,243.55,277.1,243.45,277.1c6.7,0,12-5.4,12-12.1c0-6.6-5.4-12-12.1-11.9
			c-6.6,0-12,5.4-11.9,12.1C231.55,271.7,236.95,277.1,243.45,277.1z"/>
		<path d="M243.75,304.9c-3.2,0-6.3,1.3-8.5,3.5s-3.5,5.3-3.5,8.5s1.3,6.3,3.5,8.5s5.3,3.5,8.5,3.5c3.2,0,6.3-1.3,8.5-3.5
			s3.5-5.3,3.5-8.5s-1.3-6.3-3.5-8.5S246.95,304.9,243.75,304.9z"/>
		<path d="M294.75,332.1c-5.8-3.3-13.1-1.3-16.4,4.5s-1.3,13.1,4.5,16.4c1.9,1.1,3.9,1.6,5.9,1.6c4.2,0,8.2-2.2,10.4-6.1
			C302.55,342.7,300.55,335.4,294.75,332.1z"/>
		<path d="M342.35,359.7c-2.2-2.2-5.3-3.5-8.5-3.5s-6.3,1.3-8.5,3.5s-3.5,5.3-3.5,8.5s1.3,6.3,3.5,8.5s5.3,3.5,8.5,3.5
			c3.1,0,6.3-1.3,8.5-3.5s3.5-5.3,3.5-8.5S344.55,362,342.35,359.7z"/>
		<path d="M192.95,332.7c-5.7,3.4-7.6,10.7-4.3,16.4c2.2,3.8,6.3,5.9,10.4,5.9c2.1,0,4.1-0.5,6-1.6c5.7-3.4,7.6-10.7,4.3-16.4
			S198.75,329.3,192.95,332.7z"/>
		<path d="M154.25,357.2c-3.1,0-6.3,1.3-8.5,3.5s-3.5,5.3-3.5,8.5s1.3,6.3,3.5,8.5s5.3,3.5,8.5,3.5s6.3-1.3,8.5-3.5s3.5-5.3,3.5-8.5
			s-1.3-6.3-3.5-8.5C160.55,358.5,157.45,357.2,154.25,357.2z"/>
		<path d="M72.15,373.8h0.2c11.2-0.1,21.8-4.5,29.7-12.5s12.2-18.6,12.1-29.8c-0.1-23.1-19-41.8-42-41.8h-0.2
			c-11.2,0.1-21.8,4.5-29.7,12.5s-12.2,18.6-12.1,29.8C30.25,355.1,49.05,373.8,72.15,373.8z M72.15,314.1c9.7,0,17.6,7.9,17.7,17.6
			c0,4.7-1.8,9.2-5.1,12.5s-7.8,5.2-12.5,5.2h-0.1c-9.7,0-17.6-7.9-17.7-17.6C54.45,322.1,62.25,314.2,72.15,314.1z"/>
		<path d="M128.25,414.3c-12.6-20.7-31.8-31.6-55.4-31.6c-0.1,0-0.3,0-0.4,0c-23.8,0.1-43,11.3-55.5,32.2
			c-9,15.1-14.7,35.5-16.9,60.6c-0.6,6.6,4.3,12.4,10.9,13c0.4,0,0.7,0,1,0c6.2,0,11.4-4.7,11.9-11c4.1-46.9,20.4-70.7,48.6-70.9
			c0.1,0,0.2,0,0.3,0c28,0,44.5,23.7,49.1,70.4c0.6,6.6,6.5,11.4,13.1,10.8s11.4-6.5,10.8-13.1
			C143.35,449.6,137.45,429.3,128.25,414.3z"/>
	</g>
</g>
<g>
</g>
<g>
</g>
<g>
</g>
<g>
</g>
<g>
</g>
<g>
</g>
<g>
</g>
<g>
</g>
<g>
</g>
<g>
</g>
<g>
</g>
<g>
</g>
<g>
</g>
<g>
</g>
<g>
</g>
</svg>
